<?xml version="1.0" encoding="UTF-8"?> <svg xmlns="http://www.w3.org/2000/svg" width="103" height="42" viewBox="0 0 103 42" fill="none"><g clip-path="url(#clip0)"><path d="M53.7914 5.40339C52.1992 5.40339 49.8864 5.7328 47.784 6.24523V21.2612H51.0874V8.46652C51.9887 8.31554 52.9198 8.22632 53.6999 8.22632C57.0032 8.22632 57.7833 9.36785 57.7833 11.7401V21.2612H61.0866V11.1705C61.0889 7.53774 59.3183 5.40339 53.7914 5.40339ZM13.696 18.4383C12.7947 18.619 11.8042 18.738 10.9326 18.738C6.36648 18.738 3.48406 16.0958 3.48406 10.7198C3.48406 5.79457 6.15602 3.00137 11.0813 3.00137C13.1836 3.00137 14.8353 3.36282 16.3062 3.84322C16.6059 2.91216 16.8461 1.80036 16.9079 0.80982C15.3454 0.269939 13.3941 0 11.0813 0C4.05369 0 0 3.90499 0 10.8411C0 17.2076 3.69452 21.7439 10.6924 21.7439C12.9457 21.7439 15.3477 21.323 17.0589 20.6321V9.93976H13.696V18.4383ZM70.9715 5.40339C65.7168 5.40339 63.6442 8.94693 63.6442 13.4215C63.6442 18.5573 66.3161 21.6204 71.8431 21.6204C73.616 21.6204 75.2059 21.3505 76.7089 20.6596C76.9193 19.6691 77.1 18.5275 77.219 17.6559C75.5673 18.4063 73.7349 18.7975 71.9323 18.7975C68.9904 18.7975 67.4279 17.505 67.007 14.833H77.5484C77.6674 13.9614 77.7291 13.2111 77.7291 12.28C77.7291 8.49855 75.6863 5.40339 70.9715 5.40339ZM66.9475 12.0718C67.2175 9.51883 68.4482 8.16684 70.7907 8.16684C73.0738 8.16684 74.3938 9.60805 74.3938 12.0718H66.9475ZM88.6617 8.73875C88.8127 7.86716 88.9019 6.9361 88.9614 5.91581H83.7365V0.240202C82.7162 0.240202 81.4534 0.391187 80.4331 0.720606V16.4892C80.4331 20.154 82.476 21.625 85.6878 21.625C86.6189 21.625 87.5797 21.506 88.481 21.1446C88.6617 20.273 88.7807 19.2527 88.8722 18.3514C88.1516 18.6213 87.2503 18.802 86.2895 18.802C84.6973 18.802 83.7365 18.0517 83.7365 16.0981V8.73875H88.6617ZM45.0824 8.73875C45.2333 7.86716 45.3226 6.9361 45.382 5.91581H40.1571V0.240202C39.1368 0.240202 37.874 0.391187 36.8537 0.720606V16.4892C36.8537 20.154 38.8966 21.625 42.1084 21.625C43.0395 21.625 44.0003 21.506 44.9016 21.1446C45.0824 20.273 45.2013 19.2527 45.2928 18.3514C44.5722 18.6213 43.6709 18.802 42.7101 18.802C41.1179 18.802 40.1571 18.0517 40.1571 16.0981V8.73875H45.0824ZM27.3921 5.40339C22.1374 5.40339 20.0648 8.94693 20.0648 13.4215C20.0648 18.5573 22.7368 21.6204 28.2637 21.6204C30.0366 21.6204 31.6265 21.3505 33.1295 20.6596C33.3399 19.6691 33.5207 18.5275 33.6396 17.6559C31.9879 18.4063 30.1556 18.7975 28.3529 18.7975C25.411 18.7975 23.8486 17.505 23.4276 14.833H33.969C34.088 13.9614 34.1498 13.2111 34.1498 12.28C34.1498 8.49855 32.1069 5.40339 27.3921 5.40339ZM23.3659 12.0718C23.6358 9.51883 24.8666 8.16684 27.2091 8.16684C29.4921 8.16684 30.8121 9.60805 30.8121 12.0718H23.3659ZM100.763 8.73875H102.449V7.05277H100.763V8.73875ZM100.763 5.36678H102.449V3.6808H100.763V5.36678ZM97.3913 1.99482H99.0773V0.308832H97.3913V1.99482ZM94.0194 8.73875H95.7053V7.05277H94.0194V8.73875ZM97.3913 5.36678H99.0773V3.6808H97.3913V5.36678ZM100.763 0.308832V1.99482H102.449V0.308832H100.763ZM94.0194 5.36678H95.7053V3.6808H94.0194V5.36678ZM94.0194 1.99482H95.7053V0.308832H94.0194V1.99482ZM97.3913 8.73875H99.0773V7.05277H97.3913V8.73875Z" fill="#EC0000"></path><path d="M22.4963 32.7544C22.2126 32.5119 21.842 32.3701 21.2747 32.3701H19.0557V38.2333H19.8929V35.6369H21.2747C21.8443 35.6369 22.2126 35.495 22.4963 35.2525C22.8486 34.9506 23.075 34.5068 23.075 34.0058C23.075 33.5002 22.8486 33.0564 22.4963 32.7544ZM22.0021 34.58C21.8512 34.7401 21.6338 34.8385 21.2312 34.8385H19.8907V33.1639H21.2312C21.6338 33.1639 21.8512 33.2646 22.0021 33.4247C22.144 33.5757 22.2378 33.777 22.2378 34.0035C22.2378 34.2277 22.1463 34.429 22.0021 34.58ZM26.2411 34.6555C25.882 34.3466 25.4542 34.2117 25.0104 34.2117C24.6421 34.2117 24.3149 34.3032 24.0473 34.4633C23.4525 34.8156 23.0339 35.4767 23.0339 36.2637C23.0339 37.0506 23.4433 37.7049 24.0381 38.0549C24.3058 38.215 24.6741 38.3134 25.0264 38.3134C25.4953 38.3134 25.9231 38.1532 26.2411 37.8696V38.2287H27.0121V34.2917H26.2411V34.6555ZM26.216 37.0003C25.9483 37.3594 25.5388 37.5608 25.1362 37.5608C24.3744 37.5608 23.83 36.966 23.83 36.2637C23.83 35.5774 24.3332 34.9666 25.095 34.9666C25.5731 34.9666 25.9735 35.2091 26.2182 35.527V37.0003H26.216ZM31.0566 34.6555C30.6974 34.3466 30.2696 34.2117 29.8258 34.2117C29.4575 34.2117 29.1304 34.3032 28.8627 34.4633C28.268 34.8156 27.8493 35.4767 27.8493 36.2637C27.8493 37.0506 28.2588 37.7049 28.8536 38.0549C29.1212 38.215 29.4896 38.3134 29.8419 38.3134C30.3108 38.3134 30.7134 38.1624 31.0314 37.8856V38.1029C31.0314 38.5971 30.9559 38.899 30.8141 39.1163C30.6219 39.4092 30.2857 39.5693 29.8602 39.5693C29.215 39.5693 28.8467 39.2422 28.5631 38.867L27.9774 39.4115C28.2291 39.8049 28.8742 40.3242 29.8945 40.3242C30.6723 40.3242 31.2762 39.9651 31.5942 39.352C31.7543 39.0431 31.8298 38.6474 31.8298 38.0617V34.294H31.0589V34.6555H31.0566ZM31.0314 37.0003C30.7638 37.3594 30.352 37.5608 29.9517 37.5608C29.1899 37.5608 28.6454 36.966 28.6454 36.2637C28.6454 35.5774 29.1487 34.9666 29.9105 34.9666C30.3886 34.9666 30.7889 35.2091 31.0337 35.527V37.0003H31.0314ZM34.6985 34.2117C33.5341 34.2117 32.6625 35.0901 32.6625 36.2637C32.6625 37.4372 33.5341 38.3157 34.6985 38.3157C35.8629 38.3157 36.7345 37.4372 36.7345 36.2637C36.7345 35.0901 35.8629 34.2117 34.6985 34.2117ZM34.6985 37.5608C33.971 37.5608 33.4586 36.982 33.4586 36.2637C33.4586 35.5431 33.9687 34.9666 34.6985 34.9666C35.426 34.9666 35.9384 35.5453 35.9384 36.2637C35.9384 36.9843 35.4282 37.5608 34.6985 37.5608Z" fill="#4A4A4A"></path><path d="M41.7173 38.5992L38.1989 34.2939H37.6133V38.2309H38.4506V35.8517L41.9689 40.1571H42.5546V32.3677H41.7173V38.5992ZM47.0612 34.2939H46.1233L45.1945 35.5658L44.2657 34.2939H43.3278L44.6752 36.1606L43.1837 38.2286H44.1307L45.1945 36.7553L46.2582 38.2286H47.2053L45.7138 36.1606L47.0612 34.2939ZM49.8407 35.0076V34.2961H48.5848V33.2072H47.7887V36.808C47.7887 37.2358 47.8733 37.5949 48.1067 37.8557C48.3583 38.1394 48.7266 38.3155 49.2207 38.3155C49.4472 38.3155 49.6897 38.2812 49.8407 38.2309L49.6805 37.5103C49.5639 37.5446 49.3626 37.5606 49.2459 37.5606C49.0354 37.5606 48.8112 37.4851 48.7014 37.3501C48.6008 37.2335 48.5848 37.0573 48.5848 36.8469V35.0053H49.8407V35.0076Z" fill="#BDBCBC"></path><path d="M15.769 37.387H13.9412L13.5935 38.2311H12.6602L14.4148 34.2964H15.3138L17.073 38.2311H16.1168L15.769 37.387ZM15.4831 36.6961L14.8586 35.1886L14.234 36.6961H15.4831Z" fill="#4A4A4A"></path><path d="M53.1193 38.0366C52.7945 37.8627 52.5406 37.6203 52.3553 37.3114C52.17 37.0026 52.0762 36.6526 52.0762 36.2637C52.0762 35.8748 52.17 35.5248 52.3553 35.2159C52.5406 34.9071 52.7945 34.6646 53.1193 34.4908C53.4442 34.3169 53.8079 34.23 54.2128 34.23C54.5537 34.23 54.8625 34.2895 55.137 34.4107C55.4115 34.5297 55.6449 34.7035 55.8302 34.9277L55.2445 35.4676C54.9792 35.161 54.6475 35.0055 54.254 35.0055C54.0092 35.0055 53.7919 35.0581 53.602 35.1656C53.4099 35.2731 53.2612 35.4218 53.1559 35.6117C53.0484 35.8039 52.9958 36.0212 52.9958 36.2637C52.9958 36.5062 53.0484 36.7258 53.1559 36.9157C53.2635 37.1078 53.4122 37.2565 53.602 37.3618C53.7942 37.4693 54.0115 37.5219 54.254 37.5219C54.6475 37.5219 54.9769 37.3663 55.2445 37.0552L55.8302 37.5951C55.6426 37.8239 55.4115 37.9977 55.1325 38.119C54.8557 38.2379 54.5468 38.2997 54.2037 38.2997C53.8079 38.2997 53.4442 38.2105 53.1193 38.0366Z" fill="#4A4A4A"></path><path d="M57.1682 38.0341C56.8411 37.858 56.5826 37.6155 56.3973 37.3067C56.212 36.9979 56.1182 36.6501 56.1182 36.2635C56.1182 35.8769 56.212 35.5292 56.3973 35.2204C56.5826 34.9115 56.8388 34.6691 57.1682 34.4929C57.4953 34.3168 57.8636 34.2275 58.2731 34.2275C58.6826 34.2275 59.0486 34.3168 59.3758 34.4929C59.7029 34.6691 59.9591 34.9115 60.1467 35.2204C60.3343 35.5292 60.4281 35.8769 60.4281 36.2635C60.4281 36.6501 60.3343 36.9979 60.1467 37.3067C59.9591 37.6155 59.7029 37.858 59.3758 38.0341C59.0486 38.2103 58.6826 38.2995 58.2731 38.2995C57.8636 38.2995 57.4953 38.2103 57.1682 38.0341ZM58.9022 37.3616C59.0898 37.2541 59.2362 37.1054 59.3437 36.9155C59.4512 36.7233 59.5039 36.506 59.5039 36.2635C59.5039 36.021 59.4512 35.8014 59.3437 35.6116C59.2362 35.4194 59.0898 35.2707 58.9022 35.1655C58.7146 35.0579 58.5042 35.0053 58.2731 35.0053C58.0398 35.0053 57.8316 35.0579 57.644 35.1655C57.4564 35.273 57.31 35.4217 57.2025 35.6116C57.095 35.8037 57.0424 36.021 57.0424 36.2635C57.0424 36.506 57.095 36.7256 57.2025 36.9155C57.31 37.1077 57.4564 37.2564 57.644 37.3616C57.8316 37.4691 58.0421 37.5217 58.2731 37.5217C58.5042 37.5217 58.7146 37.4691 58.9022 37.3616Z" fill="#4A4A4A"></path><path d="M64.6925 38.2311L64.6879 35.8703L63.5303 37.8148H63.1208L61.9679 35.9206V38.2311H61.1123V34.2964H61.8649L63.3382 36.7419L64.7885 34.2964H65.5366L65.548 38.2311H64.6925Z" fill="#4A4A4A"></path><path d="M69.091 34.4702C69.3472 34.5869 69.5462 34.7516 69.6835 34.9644C69.823 35.1771 69.8917 35.431 69.8917 35.7239C69.8917 36.0121 69.823 36.2638 69.6835 36.4811C69.5439 36.6961 69.3472 36.8608 69.091 36.9752C68.8348 37.0896 68.5305 37.1468 68.1828 37.1468H67.389V38.2311H66.4785V34.2964H68.1828C68.5328 34.2964 68.8348 34.3536 69.091 34.4702ZM68.757 36.2271C68.8988 36.1082 68.9697 35.9412 68.9697 35.7239C68.9697 35.502 68.8988 35.3327 68.757 35.216C68.6152 35.0971 68.407 35.0399 68.1325 35.0399H67.3913V36.4056H68.1325C68.407 36.4033 68.6152 36.3461 68.757 36.2271Z" fill="#4A4A4A"></path><path d="M72.9409 37.387H71.1131L70.7654 38.2311H69.832L71.5866 34.2964H72.4857L74.2449 38.2311H73.2886L72.9409 37.387ZM72.6527 36.6961L72.0281 35.1886L71.4036 36.6961H72.6527Z" fill="#4A4A4A"></path><path d="M78.2642 34.2964V38.2311H77.5161L75.5533 35.8405V38.2311H74.6543V34.2964H75.4069L77.3628 36.6847V34.2964H78.2642Z" fill="#4A4A4A"></path><path d="M81.0874 36.8379V38.2311H80.1769V36.8265L78.6533 34.2964H79.621L80.6733 36.0441L81.7256 34.2964H82.6201L81.0874 36.8379Z" fill="#4A4A4A"></path></g><defs><clipPath id="clip0"><rect width="102.951" height="42" fill="white"></rect></clipPath></defs></svg> 