<?xml version="1.0" encoding="UTF-8"?> <svg xmlns="http://www.w3.org/2000/svg" width="38" height="26" viewBox="0 0 38 26" fill="none"><path d="M38 12H35.6V9.6H38V12Z" fill="#EC0000"></path><path d="M38 7.2H35.6V4.8H38V7.2Z" fill="#EC0000"></path><path d="M33.2 2.4H30.8V0H33.2V2.4Z" fill="#EC0000"></path><path d="M28.4 12H26V9.6H28.4V12Z" fill="#EC0000"></path><path d="M33.2 7.2H30.8V4.8H33.2V7.2Z" fill="#EC0000"></path><path d="M38 2.4H35.6V0H38V2.4Z" fill="#EC0000"></path><path d="M28.4 7.2H26V4.8H28.4V7.2Z" fill="#EC0000"></path><path d="M28.4 2.4H26V0H28.4V2.4Z" fill="#EC0000"></path><path d="M33.2 12H30.8V9.6H33.2V12Z" fill="#EC0000"></path><path d="M12.9957 22.2272C14.03 22.2272 15.2087 22.0865 16.2799 21.8722V11.792H20.2794V24.4718C18.2444 25.2892 15.3867 25.7883 12.7103 25.7883C4.39236 25.7883 0 20.4082 0 12.8573C0 4.6297 4.82219 0 13.1771 0C15.924 0 18.2444 0.3216 20.1014 0.96145C20.0275 2.1373 19.7421 3.45385 19.3862 4.55935C17.6366 3.98985 15.6721 3.56105 13.1737 3.56105C7.31724 3.56105 4.1405 6.8742 4.1405 12.7166C4.1405 19.0917 7.5691 22.2272 12.9957 22.2272Z" fill="#EC0000"></path></svg> 