<?xml version="1.0" encoding="utf-8"?>
<!-- Generator: Adobe Illustrator 25.2.1, SVG Export Plug-In . SVG Version: 6.00 Build 0)  -->
<svg version="1.1" id="Capa_1" xmlns="http://www.w3.org/2000/svg" xmlns:xlink="http://www.w3.org/1999/xlink" x="0px" y="0px"
	 viewBox="0 0 2225.6 434.3" style="enable-background:new 0 0 2225.6 434.3;" xml:space="preserve">
<style type="text/css">
	.st0{fill:#FFFFFF;}
	.st1{fill:#EC0000;}
	.st2{fill:#D8D8D8;}
</style>
<path class="st0" d="M154,111.8v87.1c-14.3,6.2-34.6,9.4-53,9.4c-56.1,0-86.8-36.9-86.8-94.3c0-57.7,30.4-94.1,92.2-94.1
	c18.7,0,34.3,2.6,46.8,7c-1,9.9-2.8,19.7-5.5,29.4c-13.2-5-27.2-7.5-41.3-7.3c-37.7,0-57.2,23.7-57.2,64.7
	c0,41.6,18.5,65.5,53.8,65.5c5.8,0,11.5-0.5,17.2-1.6v-66L154,111.8z"/>
<path class="st0" d="M288.4,150.8h-80.3c3.1,22.6,14.8,30.4,37.4,30.4c14.1-0.1,27.9-3.4,40.5-9.6c-0.8,9.2-2.2,18.3-4.2,27.3
	c-11.4,5.7-25.2,8.3-40.5,8.3c-46.5,0-66.8-26.5-66.8-69.1c0-38.5,19-66.8,59.5-66.8c38.7,0,55.6,25.2,55.6,58
	C289.7,136.4,289.2,143.6,288.4,150.8z M207.8,126.9h49.4c-0.3-19.2-7.5-29.9-23.9-29.9C218.4,97,209.9,107.2,207.8,126.9z"/>
<path class="st0" d="M362.4,180.2c6-0.1,12-1.5,17.4-4.2c-0.6,8.9-1.9,17.8-3.6,26.5c-7,3.6-14.5,4.7-22.6,4.7
	c-26.8,0-41.6-14-41.6-43.9V38.5c10.8-3,22-4.5,33.3-4.4v40.3h35.9c-0.5,8.8-1.4,17.6-2.9,26.2h-33v59.2
	C345.3,173.9,350.5,180.2,362.4,180.2z"/>
<path class="st1" d="M477.6,73.6c0,9.2-1,18.3-3.1,27.3c-7.5-1.1-15-1.6-22.6-1.6c-5.6,0-11.3,0.3-16.9,1V204h-33.3V78.6
	c13.5-3.6,31.4-6.8,48.3-6.8C459.2,71.7,468.4,72.3,477.6,73.6z"/>
<path class="st1" d="M595.5,150.8h-80.3c3.1,22.6,14.8,30.4,37.4,30.4c14.1-0.1,27.9-3.4,40.5-9.6c-0.8,9.2-2.2,18.3-4.2,27.3
	c-11.4,5.7-25.2,8.3-40.5,8.3c-46.5,0-66.8-26.5-66.8-69.1c0-38.5,19-66.8,59.5-66.8c38.7,0,55.6,25.2,55.6,58
	C596.9,136.4,596.4,143.6,595.5,150.8z M515,126.9h49.4c-0.3-19.2-7.6-29.9-23.9-29.9C525.6,97,517.1,107.2,515,126.9z"/>
<path class="st1" d="M728.6,77.8v126.3h-30.4l-2.1-18.2c-6.2,13.5-16.6,21.3-32.5,21.3c-28.8,0-49.4-19.8-49.4-67
	c0-41.8,17.9-68.9,65.8-68.9C696.4,71.2,712.8,73.4,728.6,77.8z M695.6,171.9V99.6c-5.4-1.1-10.9-1.6-16.4-1.6
	c-24.4,0-31.2,16.4-31.2,41.3c0,29.6,9.1,41.1,25.7,41.1C683.4,180.4,690.4,177.1,695.6,171.9L695.6,171.9z"/>
<path class="st1" d="M865,78v126h-30.7l-1.8-17.7c-6,13-16.1,20.8-32.5,20.8c-29.6,0-50.4-20.3-50.4-66.3
	c0-42.6,18.2-69.7,65.5-69.7c6,0,11.4,0.3,16.9,0.5V24.2c10.7-3.1,21.8-4.7,33-4.7v58.2h0.3L865,78z M832,172.1V99.6
	c-5.3-1.1-10.7-1.6-16.1-1.6c-24.4,0-32.5,15.3-32.5,41.6c0,28.9,8.8,40.8,27.5,40.8C818.8,180.5,826.3,177.5,832,172.1L832,172.1z"
	/>
<path class="st1" d="M1004.6,74.4L957.8,216c-9.1,28.1-25.7,46.3-54.8,46.3c-4.4,0-8.7-0.6-13-1.6c-0.1-8.9,0.5-17.9,1.8-26.7
	c2.7,0.6,5.5,0.9,8.3,1c13,0,22.9-5.2,29.4-23.6l-51.2-137h34.3l31.4,98l28.1-98L1004.6,74.4z"/>
<path class="st0" d="M1119,180.2c6-0.1,12-1.5,17.4-4.2c-0.6,8.9-1.9,17.8-3.6,26.5c-7,3.6-14.6,4.7-22.6,4.7
	c-26.8,0-41.6-14-41.6-43.9V38.5c10.8-3,22-4.5,33.3-4.4v40.3h35.9c-0.5,8.8-1.4,17.6-2.9,26.2h-33v59.2
	C1101.8,173.9,1107,180.2,1119,180.2z"/>
<path class="st0" d="M1147,139.4c0-42.9,22.1-68.1,61.6-68.1s61.8,25.2,61.8,68.1c0,42.4-22.6,67.8-61.8,67.8
	C1169.6,207.2,1147,181.7,1147,139.4z M1236.4,139.4c0-27.8-8.6-41.3-27.8-41.3c-19,0-27.6,13.5-27.6,41.3
	c0,27.6,8.8,41.1,27.6,41.1C1227.6,180.4,1236.4,166.9,1236.4,139.4L1236.4,139.4z"/>
<path class="st0" d="M1792.3,66.5c-13.6,0-33.3,2.8-51.3,7.2v128.1h28.2V92.6c7.4-1.3,14.8-1.9,22.3-2c28.2,0,34.8,9.7,34.8,30v81.2
	h28.2v-86.2C1854.6,84.7,1839.5,66.5,1792.3,66.5z M1450.2,177.7c-7.8,1.6-15.7,2.4-23.6,2.6c-39,0-63.6-22.5-63.6-68.4
	c0-42,22.8-65.9,64.8-65.9c15.2-0.1,30.2,2.4,44.6,7.2c2.7-8.4,4.4-17.1,5.1-25.9c-13.3-4.6-30-6.9-49.7-6.9
	c-60,0-94.6,33.3-94.6,92.5c0,54.3,31.5,93,91.2,93c19.2,0,39.7-3.6,54.3-9.5v-91.2H1450v72.5H1450.2z M1938.9,66.5
	c-44.8,0-62.5,30.2-62.5,68.4c0,43.8,22.8,70,70,70c15.1,0,28.7-2.3,41.5-8.2c1.8-8.4,3.3-18.2,4.4-25.6
	c-14.2,6.4-29.6,9.7-45.1,9.7c-25.1,0-38.4-11-42-33.8h90c1-7.2,1.5-14.5,1.5-21.8C1996.6,92.9,1979.2,66.5,1938.9,66.5z
	 M1904.6,123.4c2.3-21.8,12.8-33.3,32.8-33.3c19.5,0,30.8,12.3,30.8,33.3C1968.2,123.4,1904.6,123.4,1904.6,123.4z M2089.9,95
	c1.3-8,2.2-16,2.6-24.1h-44.6V22.4c-9.5,0-19,1.4-28.2,4.1v134.6c0,31.3,17.4,43.8,44.8,43.8c8.1,0.2,16.2-1.2,23.8-4.1
	c1.5-7.4,2.6-16.1,3.3-23.8c-7.1,2.6-14.5,3.9-22,3.8c-13.6,0-21.8-6.4-21.8-23.1V95H2089.9z M1718,95c1.3-8,2.2-16,2.6-24.1H1676
	V22.4c-9.5,0-19,1.4-28.2,4.1v134.6c0,31.3,17.4,43.8,44.8,43.8c8.1,0.2,16.2-1.2,23.8-4.1c1.5-7.4,2.6-16.1,3.3-23.8
	c-7.1,2.6-14.5,3.9-22,3.8c-13.6,0-21.8-6.4-21.8-23.1V95H1718z M1567,66.5c-44.8,0-62.5,30.2-62.5,68.4c0,43.8,22.8,70,70,70
	c15.1,0,28.7-2.3,41.5-8.2c1.8-8.4,3.3-18.2,4.3-25.6c-14.2,6.4-29.6,9.7-45.1,9.7c-25.1,0-38.4-11-42-33.8h90
	c1-7.2,1.6-14.5,1.6-21.8C1624.7,92.9,1607.3,66.5,1567,66.5z M1532.7,123.4c2.3-21.8,12.8-33.3,32.8-33.3
	c19.5,0,30.7,12.3,30.7,33.3C1596.2,123.4,1532.7,123.4,1532.7,123.4z M2193.1,95h14.4V80.6h-14.4V95z M2193.1,66.2h14.4V51.8h-14.4
	V66.2z M2164.4,37.4h14.4V23h-14.4V37.4z M2135.6,95h14.4V80.6h-14.4V95z M2164.4,66.2h14.4V51.8h-14.4V66.2z M2193.1,23v14.4h14.4
	V23H2193.1z M2135.6,66.2h14.4V51.8h-14.4V66.2z M2135.6,37.4h14.4V23h-14.4V37.4z M2164.4,95h14.4V80.6h-14.4V95z"/>
<path class="st0" d="M1424,263.6l-18.2,70.6H1390l-12-48.9l-11.8,48.9h-16l-18.6-70.6h14.3l12.3,57.2l13.3-57.2h13.4l13.6,57.4
	l12.1-57.4H1424z"/>
<path class="st0" d="M1469.1,313.3h-31.5c1.2,8.9,5.8,11.9,14.7,11.9c5.5,0,11-1.3,15.9-3.8c-0.3,3.6-0.9,7.2-1.6,10.7
	c-5,2.3-10.4,3.4-15.9,3.3c-18.3,0-26.2-10.4-26.2-27.1c0-15.1,7.4-26.2,23.4-26.2c15.2,0,21.8,9.9,21.8,22.8
	C1469.6,307.7,1469.4,310.5,1469.1,313.3z M1437.4,303.9h19.4c-0.1-7.5-3-11.7-9.4-11.7C1441.6,292.2,1438.3,296.2,1437.4,303.9z"/>
<path class="st0" d="M1541.7,284.6v49.6h-11.9l-0.8-7.1c-2.4,5.3-6.5,8.4-12.8,8.4c-11.3,0-19.4-7.8-19.4-26.3c0-16.4,7-27,25.8-27
	C1529.1,282,1535.5,282.9,1541.7,284.6z M1528.7,321.6v-28.4c-2.1-0.4-4.3-0.6-6.4-0.6c-9.6,0-12.2,6.4-12.2,16.2
	c0,11.6,3.6,16.1,10.1,16.1C1523.4,325.1,1526.5,323.9,1528.7,321.6L1528.7,321.6z"/>
<path class="st0" d="M1582.4,283c0,3.6-0.4,7.2-1.2,10.7c-2.9-0.4-5.9-0.6-8.9-0.6c-2.2,0-4.4,0.1-6.6,0.4v40.7h-13.1V285
	c6.2-1.7,12.6-2.6,19-2.6C1575.2,282.3,1578.8,282.5,1582.4,283z"/>
<path class="st0" d="M1628.7,313.3h-31.5c1.2,8.9,5.8,11.9,14.7,11.9c5.5,0,11-1.3,15.9-3.8c-0.3,3.6-0.9,7.2-1.6,10.7
	c-5,2.3-10.4,3.4-15.9,3.3c-18.3,0-26.2-10.4-26.2-27.1c0-15.1,7.4-26.2,23.4-26.2c15.2,0,21.8,9.9,21.8,22.8
	C1629.2,307.7,1629,310.5,1628.7,313.3z M1597.1,303.9h19.4c-0.1-7.5-3-11.7-9.4-11.7C1601.2,292.2,1597.9,296.2,1597.1,303.9
	L1597.1,303.9z"/>
<path class="st0" d="M1704.4,308c0,16.5-8.2,27.5-26.7,27.5c-6.4,0-12.7-1-18.8-2.9v-69c4.3-1.2,8.6-1.8,13.1-1.8v21.6
	c2.7-0.9,5.6-1.3,8.5-1.3C1696.3,282.1,1704.4,290.9,1704.4,308z M1691.1,308.4c0-10.5-3.5-15.8-12-15.8c-2.4,0-4.8,0.5-7,1.3v30.4
	c2,0.4,4.1,0.6,6.2,0.6C1688.1,325,1691.1,318.3,1691.1,308.4L1691.1,308.4z"/>
<path class="st0" d="M1755.2,283.3v48.9c-6.7,2.1-13.7,3.2-20.7,3.3c-17,0-22.3-7.5-22.3-18.5v-33.7h13.1v32.2
	c0,6.7,2.7,9.6,9.6,9.6c2.5,0,4.9-0.3,7.3-0.8v-41H1755.2z"/>
<path class="st0" d="M1763.8,332c0.1-3.4,0.6-6.8,1.6-10.1c4.3,2.2,9.1,3.4,14,3.5c5.6,0,8.3-1.6,8.3-5c0-2.8-1.8-4.3-6.1-5.9
	l-4.2-1.6c-8.1-3.1-13.5-7.1-13.5-15.6c0-9.1,6.1-15.1,19.8-15.1c5.1-0.1,10.2,0.7,15.1,2.2c-0.1,3.4-0.6,6.7-1.3,10
	c-4.1-1.4-8.4-2.1-12.8-2.1c-6,0-8.2,1.7-8.2,4.7c0,2.6,2.1,4.4,6.7,6.1l4.5,1.7c8.8,3.4,13.1,7.2,13.1,14.9
	c0,8.9-6.4,15.8-20.4,15.8C1773.7,335.5,1768,334.1,1763.8,332z"/>
<path class="st0" d="M1851.7,283.3l-18.4,55.6c-3.6,11-10.1,18.2-21.5,18.2c-1.7,0-3.4-0.2-5.1-0.6c0-3.5,0.2-7,0.7-10.5
	c1.1,0.2,2.2,0.4,3.3,0.4c5.1,0,9-2,11.5-9.3l-20.1-53.8h13.5l12.3,38.5l11-38.5L1851.7,283.3L1851.7,283.3z"/>
<path class="st0" d="M1949.2,283.3l-15.6,50.9h-12.8l-10.1-34.5l-10.4,34.5h-12l-16.6-50.9h13.7l9.4,36.6l9.8-36.6h12.8l10.6,37
	l8.6-37H1949.2z"/>
<path class="st0" d="M1950.3,308.8c0-16.8,8.7-26.7,24.2-26.7s24.3,9.9,24.3,26.7c0,16.6-8.9,26.6-24.3,26.6
	S1950.3,325.5,1950.3,308.8z M1985.4,308.8c0-10.9-3.4-16.2-10.9-16.2s-10.8,5.3-10.8,16.2s3.5,16.1,10.8,16.1
	S1985.4,319.6,1985.4,308.8z"/>
<path class="st0" d="M2036.5,283c0,3.6-0.4,7.2-1.2,10.7c-2.9-0.4-5.9-0.6-8.9-0.6c-2.2,0-4.4,0.1-6.6,0.4v40.7h-13.1V285
	c6.2-1.7,12.6-2.6,19-2.6C2029.3,282.3,2032.9,282.5,2036.5,283z"/>
<path class="st0" d="M2073,334.2l-17.1-26.8v26.8h-13.1v-70.6c4.3-1.2,8.7-1.8,13.1-1.8v44.3l16.1-22.8h14.7l-17.7,23.1l19.4,27.9
	H2073V334.2z"/>
<path class="st0" d="M2092,267.2c0.1-4.2,3.5-7.5,7.7-7.5c4.2,0.1,7.5,3.5,7.5,7.7c0,4.1-3.4,7.4-7.5,7.5s-7.5-3.1-7.7-7.2
	C2092,267.5,2092,267.4,2092,267.2z M2093.1,283.3h13.1v50.9h-13.1V283.3z"/>
<path class="st0" d="M2160.1,300.6v33.7H2147V302c0-6.7-2.6-9.6-9.6-9.6c-2.5,0-4.9,0.3-7.4,0.8v41h-13v-48.9
	c6.7-2.1,13.7-3.2,20.7-3.3C2154.8,282.1,2160.1,289.5,2160.1,300.6z"/>
<path class="st0" d="M2213.2,284.8v47.9c0,15.8-9,24.5-25.6,24.5c-5.8,0-11.6-1.2-15.8-3.5c0.1-3.5,0.4-7,1.1-10.5
	c4.3,2.1,9,3.2,13.8,3.3c9.8,0,13.6-4.9,13.6-13.5v-5.1c-2.4,4.8-6.3,7.6-12.6,7.6c-11.6,0-19.8-8-19.8-26
	c0-16.7,7.1-27.4,25.7-27.4C2200.2,282,2206.9,282.9,2213.2,284.8L2213.2,284.8z M2200.2,321.7v-28.5c-2.1-0.4-4.2-0.6-6.3-0.6
	c-9.6,0-12.8,6-12.8,16.3c0,11.3,3.5,16,10.8,16C2195,325,2198,323.8,2200.2,321.7L2200.2,321.7z"/>
<path class="st0" d="M1332.6,396.2c0-16.8,8.7-26.7,24.2-26.7s24.3,9.9,24.3,26.7c0,16.6-8.9,26.6-24.3,26.6
	S1332.6,412.8,1332.6,396.2z M1367.7,396.2c0-10.9-3.4-16.2-10.9-16.2s-10.8,5.3-10.8,16.2s3.5,16.1,10.8,16.1
	S1367.7,407,1367.7,396.2z"/>
<path class="st0" d="M1432.1,387.9v33.7H1419v-32.2c0-6.7-2.7-9.6-9.6-9.6c-2.5,0-4.9,0.3-7.3,0.8v41H1389v-48.9
	c6.7-2.1,13.7-3.2,20.7-3.3C1426.8,369.4,1432.1,376.9,1432.1,387.9z"/>
<path class="st0" d="M1460,396.2c0-16.8,8.7-26.7,24.2-26.7s24.3,9.9,24.3,26.7c0,16.6-8.9,26.6-24.3,26.6S1460,412.8,1460,396.2z
	 M1495.1,396.2c0-10.9-3.4-16.2-10.9-16.2s-10.8,5.3-10.8,16.2s3.5,16.1,10.8,16.1S1495.1,407,1495.1,396.2z"/>
<path class="st0" d="M1559,370.6v48.9c-6.7,2.1-13.7,3.2-20.7,3.3c-17,0-22.3-7.5-22.3-18.5v-33.7h13.1v32.2c0,6.7,2.7,9.6,9.6,9.6
	c2.5,0,4.9-0.3,7.3-0.8v-41H1559z"/>
<path class="st0" d="M1599.6,370.3c0,3.6-0.4,7.2-1.2,10.7c-2.9-0.4-5.9-0.6-8.9-0.6c-2.2,0-4.4,0.1-6.6,0.4v40.7h-13.1v-49.3
	c6.2-1.7,12.6-2.6,19-2.6C1592.4,369.6,1596,369.8,1599.6,370.3z"/>
<path class="st2" d="M1666.2,387.9v33.7h-13.1v-32.2c0-6.7-2.7-9.6-9.6-9.6c-2.5,0-4.9,0.3-7.3,0.8v41h-13.1v-48.9
	c6.7-2.1,13.7-3.2,20.7-3.3C1660.9,369.4,1666.2,376.9,1666.2,387.9z"/>
<path class="st2" d="M1718.4,400.6h-31.5c1.2,8.9,5.8,11.9,14.7,11.9c5.5,0,11-1.3,15.9-3.8c-0.3,3.6-0.9,7.2-1.6,10.7
	c-5,2.3-10.4,3.4-15.9,3.3c-18.3,0-26.2-10.4-26.2-27.1c0-15.1,7.4-26.2,23.4-26.2c15.2,0,21.8,9.9,21.8,22.8
	C1718.9,395,1718.8,397.8,1718.4,400.6z M1686.8,391.3h19.4c-0.1-7.5-3-11.7-9.4-11.7C1691,379.5,1687.6,383.5,1686.8,391.3
	L1686.8,391.3z"/>
<path class="st2" d="M1798.8,370.6l-15.6,50.9h-12.8l-10.1-34.5l-10.4,34.5h-12l-16.6-50.9h13.7l9.4,36.6l9.8-36.6h12.8l10.6,37
	l8.6-37H1798.8z"/>
<path class="st2" d="M1896.3,370.6l-15.6,50.9h-12.8l-10.1-34.5l-10.4,34.5h-12.1l-16.6-50.9h13.7l9.4,36.6l9.8-36.6h12.8l10.6,37
	l8.6-37H1896.3z"/>
<path class="st2" d="M1942.1,400.6h-31.5c1.2,8.9,5.8,11.9,14.7,11.9c5.5,0,11-1.3,15.9-3.8c-0.3,3.6-0.9,7.2-1.6,10.7
	c-5,2.3-10.4,3.4-15.9,3.3c-18.3,0-26.2-10.4-26.2-27.1c0-15.1,7.4-26.2,23.4-26.2c15.2,0,21.8,9.9,21.8,22.8
	C1942.6,395,1942.5,397.8,1942.1,400.6z M1910.5,391.3h19.4c-0.1-7.5-2.9-11.7-9.4-11.7C1914.7,379.5,1911.3,383.5,1910.5,391.3
	L1910.5,391.3z"/>
<path class="st2" d="M1997.4,395.3c0,16.5-8.2,27.5-26.7,27.5c-6.4,0-12.7-1-18.8-2.9V351c4.3-1.2,8.7-1.8,13.1-1.8v21.6
	c2.7-0.9,5.6-1.3,8.5-1.3C1989.3,369.4,1997.4,378.2,1997.4,395.3z M1984.1,395.8c0-10.5-3.5-15.8-12-15.8c-2.4,0-4.8,0.5-7,1.3
	v30.4c2,0.4,4.1,0.6,6.2,0.6C1981.1,412.3,1984.1,405.6,1984.1,395.8z"/>
<path class="st2" d="M2003.4,419.3c0.1-3.4,0.6-6.8,1.6-10.1c4.3,2.2,9.1,3.4,14,3.5c5.6,0,8.3-1.6,8.3-5c0-2.8-1.8-4.3-6.1-5.9
	l-4.2-1.6c-8.1-3.1-13.5-7.1-13.5-15.6c0-9.1,6.1-15.1,19.8-15.1c5.1-0.1,10.2,0.7,15.1,2.2c-0.1,3.4-0.6,6.7-1.3,10
	c-4.1-1.4-8.4-2.1-12.8-2.1c-6,0-8.2,1.7-8.2,4.7c0,2.6,2.1,4.4,6.7,6.1l4.5,1.7c8.8,3.4,13.1,7.2,13.1,14.9
	c0,8.9-6.4,15.8-20.4,15.8C2013.3,422.8,2007.6,421.5,2003.4,419.3z"/>
<path class="st2" d="M2047.5,354.5c0.1-4.2,3.5-7.5,7.7-7.4s7.5,3.5,7.4,7.7c-0.1,4.1-3.4,7.4-7.4,7.4c-4.1,0.1-7.5-3-7.7-7.1
	C2047.5,354.9,2047.5,354.7,2047.5,354.5z M2048.7,370.6h13.1v50.9h-13.1V370.6z"/>
<path class="st2" d="M2091.8,412.2c2.4,0,4.7-0.6,6.8-1.6c-0.3,3.5-0.7,7-1.4,10.4c-2.8,1.3-5.8,2-8.9,1.8
	c-10.5,0-16.3-5.5-16.3-17.2v-49c4.3-1.2,8.6-1.8,13.1-1.7v15.8h14.1c-0.2,3.5-0.6,6.9-1.1,10.3h-13v23.3
	C2085.1,409.7,2087.1,412.2,2091.8,412.2z"/>
<path class="st2" d="M2147.6,400.6H2116c1.2,8.9,5.8,11.9,14.7,11.9c5.5,0,11-1.3,15.9-3.8c-0.3,3.6-0.9,7.2-1.6,10.7
	c-5,2.3-10.4,3.4-15.9,3.3c-18.3,0-26.2-10.4-26.2-27.1c0-15.1,7.4-26.2,23.4-26.2c15.2,0,21.8,9.9,21.8,22.8
	C2148.1,395,2147.9,397.8,2147.6,400.6z M2115.9,391.3h19.4c-0.1-7.5-3-11.7-9.4-11.7C2120.1,379.5,2116.7,383.5,2115.9,391.3
	L2115.9,391.3z"/>
</svg>
