<svg id="Capa_1" data-name="Capa 1" xmlns="http://www.w3.org/2000/svg" viewBox="0 0 1288.09 946.72"><defs><style>.cls-1{fill:#fff;}</style></defs><title>simbolo_G</title><path class="cls-1" d="M596.24,799.75c-38.45,7.65-80.76,12.78-117.95,12.78-194.84,0-317.92-112.81-317.92-342.31,0-210.24,114.08-329.54,324.31-329.54,89.77,0,160.27,15.4,223.11,35.93,12.79-39.71,23.05-87.16,25.66-129.47-66.71-23-150-34.58-248.77-34.58-300,0-473,166.66-473,462.79,0,271.82,157.66,465.39,456.4,465.39,96.16,0,198.71-17.91,271.82-47.44V436.9H596.24Zm610.17-414.17h71.94V313.64h-71.94Zm0-143.88h71.94V169.76h-71.94Zm-143.87-144h71.94V25.8h-71.94Zm-144,287.84h71.94V313.64H918.57Zm144-143.88h71.94V169.76h-71.94Zm143.87-144h71.94V25.8h-71.94Zm-287.84,144h71.94V169.76H918.57Zm0-144h71.94V25.8H918.57Zm144,287.84h71.94V313.64h-71.94Z"/></svg>